<svg xmlns="http://www.w3.org/2000/svg" viewBox="0 0 128 128">
  <defs>
    <linearGradient id="bg" x1="18" x2="110" y1="15" y2="116" gradientUnits="userSpaceOnUse">
      <stop stop-color="#2D76FF"/>
      <stop offset=".72" stop-color="#21D3B5"/>
      <stop offset="1" stop-color="#FFB25E"/>
    </linearGradient>
    <filter id="shadow" x="-20%" y="-20%" width="140%" height="150%">
      <feDropShadow dx="0" dy="8" stdDeviation="6" flood-color="#081228" flood-opacity=".25"/>
    </filter>
  </defs>
  <rect x="10" y="10" width="108" height="108" rx="26" fill="url(#bg)" filter="url(#shadow)"/>
  <circle cx="27" cy="25" r="30" fill="#fff" opacity=".15"/>
  <g opacity=".95">
    <rect x="30" y="38" width="31" height="56" rx="6" fill="#fff" transform="rotate(-7 45.5 66)"/>
    <rect x="67" y="38" width="31" height="56" rx="6" fill="#EAF4FF" transform="rotate(7 82.5 66)"/>
    <rect x="62" y="38" width="4" height="58" rx="2" fill="#2875B9" opacity=".35"/>
    <path d="M74 62v19l17-9.5z" fill="#1E72F0"/>
    <path d="M33 56l18-4M35 71l17-3M73 55l16 4" stroke="#377EBE" stroke-width="3.4" stroke-linecap="round" opacity=".25"/>
  </g>
  <circle cx="88" cy="40" r="18" fill="#FF6A73"/>
  <path d="M80 40l6 6 12-15" fill="none" stroke="#fff" stroke-width="5" stroke-linecap="round" stroke-linejoin="round"/>
</svg>
